<mxfile host="app.diagrams.net" modified="2021-10-08T12:22:31.629Z" agent="5.0 (Windows NT 10.0; Win64; x64) AppleWebKit/537.36 (KHTML, like Gecko) Chrome/94.0.4606.61 Safari/537.36" etag="Z-elPA2cBLdP9p1x7ccW" version="14.9.8" type="github">
  <diagram id="MFTdj9tiQ5QHWdpwkVMK" name="Page-1">
    <mxGraphModel dx="1422" dy="706" grid="1" gridSize="10" guides="1" tooltips="1" connect="1" arrows="1" fold="1" page="1" pageScale="1" pageWidth="827" pageHeight="1169" math="0" shadow="0">
      <root>
        <mxCell id="0" />
        <mxCell id="1" parent="0" />
        <mxCell id="12TylaKL8Qn4y9vim0oV-2" value="" style="rounded=0;whiteSpace=wrap;html=1;" parent="1" vertex="1">
          <mxGeometry x="90" y="60" width="330" height="200" as="geometry" />
        </mxCell>
        <mxCell id="12TylaKL8Qn4y9vim0oV-3" value="user" style="rounded=0;whiteSpace=wrap;html=1;" parent="1" vertex="1">
          <mxGeometry x="220" y="70" width="50" height="30" as="geometry" />
        </mxCell>
        <mxCell id="12TylaKL8Qn4y9vim0oV-4" value="id" style="ellipse;whiteSpace=wrap;html=1;" parent="1" vertex="1">
          <mxGeometry x="125" y="100" width="50" height="30" as="geometry" />
        </mxCell>
        <mxCell id="12TylaKL8Qn4y9vim0oV-5" value="code" style="ellipse;whiteSpace=wrap;html=1;" parent="1" vertex="1">
          <mxGeometry x="132.5" y="137.5" width="50" height="30" as="geometry" />
        </mxCell>
        <mxCell id="12TylaKL8Qn4y9vim0oV-6" value="username" style="ellipse;whiteSpace=wrap;html=1;" parent="1" vertex="1">
          <mxGeometry x="235" y="160" width="70" height="35" as="geometry" />
        </mxCell>
        <mxCell id="12TylaKL8Qn4y9vim0oV-9" value="password" style="ellipse;whiteSpace=wrap;html=1;" parent="1" vertex="1">
          <mxGeometry x="304" y="140" width="70" height="35" as="geometry" />
        </mxCell>
        <mxCell id="12TylaKL8Qn4y9vim0oV-10" value="active" style="ellipse;whiteSpace=wrap;html=1;" parent="1" vertex="1">
          <mxGeometry x="330" y="100" width="50" height="30" as="geometry" />
        </mxCell>
        <mxCell id="12TylaKL8Qn4y9vim0oV-14" value="" style="endArrow=none;html=1;rounded=0;exitX=1;exitY=0.5;exitDx=0;exitDy=0;entryX=0.5;entryY=1;entryDx=0;entryDy=0;" parent="1" source="12TylaKL8Qn4y9vim0oV-4" target="12TylaKL8Qn4y9vim0oV-3" edge="1">
          <mxGeometry width="50" height="50" relative="1" as="geometry">
            <mxPoint x="160" y="130" as="sourcePoint" />
            <mxPoint x="210" y="80" as="targetPoint" />
          </mxGeometry>
        </mxCell>
        <mxCell id="12TylaKL8Qn4y9vim0oV-15" value="" style="endArrow=none;html=1;rounded=0;exitX=1;exitY=0;exitDx=0;exitDy=0;entryX=0.5;entryY=1;entryDx=0;entryDy=0;" parent="1" source="12TylaKL8Qn4y9vim0oV-5" target="12TylaKL8Qn4y9vim0oV-3" edge="1">
          <mxGeometry width="50" height="50" relative="1" as="geometry">
            <mxPoint x="170" y="147.5" as="sourcePoint" />
            <mxPoint x="240" y="105" as="targetPoint" />
          </mxGeometry>
        </mxCell>
        <mxCell id="12TylaKL8Qn4y9vim0oV-16" value="" style="endArrow=none;html=1;rounded=0;entryX=0.5;entryY=1;entryDx=0;entryDy=0;" parent="1" source="12TylaKL8Qn4y9vim0oV-6" target="12TylaKL8Qn4y9vim0oV-3" edge="1">
          <mxGeometry width="50" height="50" relative="1" as="geometry">
            <mxPoint x="180" y="157.5" as="sourcePoint" />
            <mxPoint x="250" y="115" as="targetPoint" />
          </mxGeometry>
        </mxCell>
        <mxCell id="12TylaKL8Qn4y9vim0oV-17" value="" style="endArrow=none;html=1;rounded=0;exitX=0.257;exitY=0.1;exitDx=0;exitDy=0;entryX=0.5;entryY=1;entryDx=0;entryDy=0;exitPerimeter=0;" parent="1" source="12TylaKL8Qn4y9vim0oV-9" target="12TylaKL8Qn4y9vim0oV-3" edge="1">
          <mxGeometry width="50" height="50" relative="1" as="geometry">
            <mxPoint x="190" y="167.5" as="sourcePoint" />
            <mxPoint x="250" y="110" as="targetPoint" />
          </mxGeometry>
        </mxCell>
        <mxCell id="12TylaKL8Qn4y9vim0oV-18" value="" style="endArrow=none;html=1;rounded=0;exitX=0;exitY=0.5;exitDx=0;exitDy=0;entryX=0.5;entryY=1;entryDx=0;entryDy=0;" parent="1" source="12TylaKL8Qn4y9vim0oV-10" target="12TylaKL8Qn4y9vim0oV-3" edge="1">
          <mxGeometry width="50" height="50" relative="1" as="geometry">
            <mxPoint x="200" y="177.5" as="sourcePoint" />
            <mxPoint x="255" y="110" as="targetPoint" />
          </mxGeometry>
        </mxCell>
        <mxCell id="12TylaKL8Qn4y9vim0oV-19" value="" style="rounded=0;whiteSpace=wrap;html=1;" parent="1" vertex="1">
          <mxGeometry x="100" y="310" width="330" height="200" as="geometry" />
        </mxCell>
        <mxCell id="12TylaKL8Qn4y9vim0oV-20" value="user_info" style="rounded=0;whiteSpace=wrap;html=1;" parent="1" vertex="1">
          <mxGeometry x="235" y="330" width="60" height="30" as="geometry" />
        </mxCell>
        <mxCell id="12TylaKL8Qn4y9vim0oV-21" value="id" style="ellipse;whiteSpace=wrap;html=1;" parent="1" vertex="1">
          <mxGeometry x="132.5" y="350" width="50" height="30" as="geometry" />
        </mxCell>
        <mxCell id="12TylaKL8Qn4y9vim0oV-22" value="code" style="ellipse;whiteSpace=wrap;html=1;" parent="1" vertex="1">
          <mxGeometry x="130" y="390" width="50" height="30" as="geometry" />
        </mxCell>
        <mxCell id="12TylaKL8Qn4y9vim0oV-23" value="name" style="ellipse;whiteSpace=wrap;html=1;" parent="1" vertex="1">
          <mxGeometry x="155" y="425" width="50" height="35" as="geometry" />
        </mxCell>
        <mxCell id="12TylaKL8Qn4y9vim0oV-24" value="identity" style="ellipse;whiteSpace=wrap;html=1;" parent="1" vertex="1">
          <mxGeometry x="330" y="385" width="70" height="35" as="geometry" />
        </mxCell>
        <mxCell id="12TylaKL8Qn4y9vim0oV-25" value="active" style="ellipse;whiteSpace=wrap;html=1;" parent="1" vertex="1">
          <mxGeometry x="355" y="350" width="50" height="30" as="geometry" />
        </mxCell>
        <mxCell id="12TylaKL8Qn4y9vim0oV-26" value="" style="endArrow=none;html=1;rounded=0;exitX=1;exitY=0.5;exitDx=0;exitDy=0;entryX=0.5;entryY=1;entryDx=0;entryDy=0;" parent="1" source="12TylaKL8Qn4y9vim0oV-21" target="12TylaKL8Qn4y9vim0oV-20" edge="1">
          <mxGeometry width="50" height="50" relative="1" as="geometry">
            <mxPoint x="170" y="380" as="sourcePoint" />
            <mxPoint x="220" y="330" as="targetPoint" />
          </mxGeometry>
        </mxCell>
        <mxCell id="12TylaKL8Qn4y9vim0oV-27" value="" style="endArrow=none;html=1;rounded=0;exitX=0.74;exitY=0;exitDx=0;exitDy=0;entryX=0.5;entryY=1;entryDx=0;entryDy=0;exitPerimeter=0;" parent="1" source="12TylaKL8Qn4y9vim0oV-22" target="12TylaKL8Qn4y9vim0oV-20" edge="1">
          <mxGeometry width="50" height="50" relative="1" as="geometry">
            <mxPoint x="180" y="397.5" as="sourcePoint" />
            <mxPoint x="250" y="355" as="targetPoint" />
          </mxGeometry>
        </mxCell>
        <mxCell id="12TylaKL8Qn4y9vim0oV-28" value="" style="endArrow=none;html=1;rounded=0;entryX=0.5;entryY=1;entryDx=0;entryDy=0;" parent="1" source="12TylaKL8Qn4y9vim0oV-23" target="12TylaKL8Qn4y9vim0oV-20" edge="1">
          <mxGeometry width="50" height="50" relative="1" as="geometry">
            <mxPoint x="190" y="407.5" as="sourcePoint" />
            <mxPoint x="260" y="365" as="targetPoint" />
          </mxGeometry>
        </mxCell>
        <mxCell id="12TylaKL8Qn4y9vim0oV-29" value="" style="endArrow=none;html=1;rounded=0;exitX=0.5;exitY=0;exitDx=0;exitDy=0;entryX=0.5;entryY=1;entryDx=0;entryDy=0;" parent="1" source="12TylaKL8Qn4y9vim0oV-24" target="12TylaKL8Qn4y9vim0oV-20" edge="1">
          <mxGeometry width="50" height="50" relative="1" as="geometry">
            <mxPoint x="200" y="417.5" as="sourcePoint" />
            <mxPoint x="260" y="360" as="targetPoint" />
          </mxGeometry>
        </mxCell>
        <mxCell id="12TylaKL8Qn4y9vim0oV-30" value="" style="endArrow=none;html=1;rounded=0;exitX=0;exitY=0.5;exitDx=0;exitDy=0;entryX=0.5;entryY=1;entryDx=0;entryDy=0;" parent="1" source="12TylaKL8Qn4y9vim0oV-25" target="12TylaKL8Qn4y9vim0oV-20" edge="1">
          <mxGeometry width="50" height="50" relative="1" as="geometry">
            <mxPoint x="210" y="427.5" as="sourcePoint" />
            <mxPoint x="265" y="360" as="targetPoint" />
          </mxGeometry>
        </mxCell>
        <mxCell id="12TylaKL8Qn4y9vim0oV-31" value="dept_code" style="ellipse;whiteSpace=wrap;html=1;" parent="1" vertex="1">
          <mxGeometry x="310" y="425" width="70" height="35" as="geometry" />
        </mxCell>
        <mxCell id="12TylaKL8Qn4y9vim0oV-32" value="" style="endArrow=none;html=1;rounded=0;exitX=0.5;exitY=0;exitDx=0;exitDy=0;entryX=0.5;entryY=1;entryDx=0;entryDy=0;" parent="1" source="12TylaKL8Qn4y9vim0oV-31" target="12TylaKL8Qn4y9vim0oV-20" edge="1">
          <mxGeometry width="50" height="50" relative="1" as="geometry">
            <mxPoint x="345" y="445" as="sourcePoint" />
            <mxPoint x="275" y="370" as="targetPoint" />
          </mxGeometry>
        </mxCell>
        <mxCell id="12TylaKL8Qn4y9vim0oV-33" value="" style="rounded=0;whiteSpace=wrap;html=1;" parent="1" vertex="1">
          <mxGeometry x="470" y="60" width="330" height="200" as="geometry" />
        </mxCell>
        <mxCell id="12TylaKL8Qn4y9vim0oV-34" value="department" style="rounded=0;whiteSpace=wrap;html=1;" parent="1" vertex="1">
          <mxGeometry x="605" y="80" width="75" height="30" as="geometry" />
        </mxCell>
        <mxCell id="12TylaKL8Qn4y9vim0oV-35" value="id" style="ellipse;whiteSpace=wrap;html=1;" parent="1" vertex="1">
          <mxGeometry x="510" y="150" width="50" height="30" as="geometry" />
        </mxCell>
        <mxCell id="12TylaKL8Qn4y9vim0oV-36" value="code" style="ellipse;whiteSpace=wrap;html=1;" parent="1" vertex="1">
          <mxGeometry x="555" y="192.5" width="50" height="30" as="geometry" />
        </mxCell>
        <mxCell id="12TylaKL8Qn4y9vim0oV-37" value="name" style="ellipse;whiteSpace=wrap;html=1;" parent="1" vertex="1">
          <mxGeometry x="617.5" y="200" width="50" height="35" as="geometry" />
        </mxCell>
        <mxCell id="12TylaKL8Qn4y9vim0oV-39" value="active" style="ellipse;whiteSpace=wrap;html=1;" parent="1" vertex="1">
          <mxGeometry x="720" y="145" width="50" height="30" as="geometry" />
        </mxCell>
        <mxCell id="12TylaKL8Qn4y9vim0oV-40" value="" style="endArrow=none;html=1;rounded=0;exitX=1;exitY=0.5;exitDx=0;exitDy=0;entryX=0.5;entryY=1;entryDx=0;entryDy=0;" parent="1" source="12TylaKL8Qn4y9vim0oV-35" target="12TylaKL8Qn4y9vim0oV-34" edge="1">
          <mxGeometry width="50" height="50" relative="1" as="geometry">
            <mxPoint x="540" y="130" as="sourcePoint" />
            <mxPoint x="590" y="80" as="targetPoint" />
          </mxGeometry>
        </mxCell>
        <mxCell id="12TylaKL8Qn4y9vim0oV-41" value="" style="endArrow=none;html=1;rounded=0;exitX=0.5;exitY=0;exitDx=0;exitDy=0;entryX=0.5;entryY=1;entryDx=0;entryDy=0;" parent="1" source="12TylaKL8Qn4y9vim0oV-36" target="12TylaKL8Qn4y9vim0oV-34" edge="1">
          <mxGeometry width="50" height="50" relative="1" as="geometry">
            <mxPoint x="550" y="147.5" as="sourcePoint" />
            <mxPoint x="620" y="105" as="targetPoint" />
          </mxGeometry>
        </mxCell>
        <mxCell id="12TylaKL8Qn4y9vim0oV-42" value="" style="endArrow=none;html=1;rounded=0;entryX=0.5;entryY=1;entryDx=0;entryDy=0;" parent="1" source="12TylaKL8Qn4y9vim0oV-37" target="12TylaKL8Qn4y9vim0oV-34" edge="1">
          <mxGeometry width="50" height="50" relative="1" as="geometry">
            <mxPoint x="560" y="157.5" as="sourcePoint" />
            <mxPoint x="630" y="115" as="targetPoint" />
          </mxGeometry>
        </mxCell>
        <mxCell id="12TylaKL8Qn4y9vim0oV-44" value="" style="endArrow=none;html=1;rounded=0;exitX=0;exitY=0.5;exitDx=0;exitDy=0;entryX=0.5;entryY=1;entryDx=0;entryDy=0;" parent="1" source="12TylaKL8Qn4y9vim0oV-39" target="12TylaKL8Qn4y9vim0oV-34" edge="1">
          <mxGeometry width="50" height="50" relative="1" as="geometry">
            <mxPoint x="580" y="177.5" as="sourcePoint" />
            <mxPoint x="635" y="110" as="targetPoint" />
          </mxGeometry>
        </mxCell>
        <mxCell id="12TylaKL8Qn4y9vim0oV-49" value="" style="rounded=0;whiteSpace=wrap;html=1;" parent="1" vertex="1">
          <mxGeometry x="460" y="310" width="330" height="200" as="geometry" />
        </mxCell>
        <mxCell id="12TylaKL8Qn4y9vim0oV-50" value="file" style="rounded=0;whiteSpace=wrap;html=1;" parent="1" vertex="1">
          <mxGeometry x="575" y="330" width="60" height="30" as="geometry" />
        </mxCell>
        <mxCell id="12TylaKL8Qn4y9vim0oV-51" value="id" style="ellipse;whiteSpace=wrap;html=1;" parent="1" vertex="1">
          <mxGeometry x="500" y="370" width="40" height="30" as="geometry" />
        </mxCell>
        <mxCell id="12TylaKL8Qn4y9vim0oV-52" value="code" style="ellipse;whiteSpace=wrap;html=1;" parent="1" vertex="1">
          <mxGeometry x="500" y="410" width="50" height="30" as="geometry" />
        </mxCell>
        <mxCell id="12TylaKL8Qn4y9vim0oV-53" value="url" style="ellipse;whiteSpace=wrap;html=1;" parent="1" vertex="1">
          <mxGeometry x="540" y="435" width="35" height="35" as="geometry" />
        </mxCell>
        <mxCell id="12TylaKL8Qn4y9vim0oV-54" value="type" style="ellipse;whiteSpace=wrap;html=1;" parent="1" vertex="1">
          <mxGeometry x="635" y="450" width="40" height="35" as="geometry" />
        </mxCell>
        <mxCell id="12TylaKL8Qn4y9vim0oV-55" value="active" style="ellipse;whiteSpace=wrap;html=1;" parent="1" vertex="1">
          <mxGeometry x="700" y="380" width="50" height="30" as="geometry" />
        </mxCell>
        <mxCell id="12TylaKL8Qn4y9vim0oV-56" value="" style="endArrow=none;html=1;rounded=0;exitX=1;exitY=0.5;exitDx=0;exitDy=0;entryX=0.5;entryY=1;entryDx=0;entryDy=0;" parent="1" source="12TylaKL8Qn4y9vim0oV-51" target="12TylaKL8Qn4y9vim0oV-50" edge="1">
          <mxGeometry width="50" height="50" relative="1" as="geometry">
            <mxPoint x="530" y="380" as="sourcePoint" />
            <mxPoint x="580" y="330" as="targetPoint" />
          </mxGeometry>
        </mxCell>
        <mxCell id="12TylaKL8Qn4y9vim0oV-57" value="" style="endArrow=none;html=1;rounded=0;exitX=0.5;exitY=0;exitDx=0;exitDy=0;entryX=0.5;entryY=1;entryDx=0;entryDy=0;" parent="1" source="12TylaKL8Qn4y9vim0oV-52" target="12TylaKL8Qn4y9vim0oV-50" edge="1">
          <mxGeometry width="50" height="50" relative="1" as="geometry">
            <mxPoint x="540" y="397.5" as="sourcePoint" />
            <mxPoint x="610" y="355" as="targetPoint" />
          </mxGeometry>
        </mxCell>
        <mxCell id="12TylaKL8Qn4y9vim0oV-58" value="" style="endArrow=none;html=1;rounded=0;entryX=0.5;entryY=1;entryDx=0;entryDy=0;" parent="1" source="12TylaKL8Qn4y9vim0oV-53" target="12TylaKL8Qn4y9vim0oV-50" edge="1">
          <mxGeometry width="50" height="50" relative="1" as="geometry">
            <mxPoint x="550" y="407.5" as="sourcePoint" />
            <mxPoint x="620" y="365" as="targetPoint" />
          </mxGeometry>
        </mxCell>
        <mxCell id="12TylaKL8Qn4y9vim0oV-59" value="" style="endArrow=none;html=1;rounded=0;exitX=0.5;exitY=0;exitDx=0;exitDy=0;entryX=0.5;entryY=1;entryDx=0;entryDy=0;" parent="1" source="12TylaKL8Qn4y9vim0oV-54" target="12TylaKL8Qn4y9vim0oV-50" edge="1">
          <mxGeometry width="50" height="50" relative="1" as="geometry">
            <mxPoint x="560" y="417.5" as="sourcePoint" />
            <mxPoint x="620" y="360" as="targetPoint" />
          </mxGeometry>
        </mxCell>
        <mxCell id="12TylaKL8Qn4y9vim0oV-60" value="" style="endArrow=none;html=1;rounded=0;exitX=0;exitY=0.5;exitDx=0;exitDy=0;entryX=0.5;entryY=1;entryDx=0;entryDy=0;" parent="1" source="12TylaKL8Qn4y9vim0oV-55" target="12TylaKL8Qn4y9vim0oV-50" edge="1">
          <mxGeometry width="50" height="50" relative="1" as="geometry">
            <mxPoint x="570" y="427.5" as="sourcePoint" />
            <mxPoint x="625" y="360" as="targetPoint" />
          </mxGeometry>
        </mxCell>
        <mxCell id="12TylaKL8Qn4y9vim0oV-61" value="name" style="ellipse;whiteSpace=wrap;html=1;" parent="1" vertex="1">
          <mxGeometry x="580" y="460" width="50" height="35" as="geometry" />
        </mxCell>
        <mxCell id="12TylaKL8Qn4y9vim0oV-62" value="" style="endArrow=none;html=1;rounded=0;exitX=0.5;exitY=0;exitDx=0;exitDy=0;entryX=0.5;entryY=1;entryDx=0;entryDy=0;" parent="1" source="12TylaKL8Qn4y9vim0oV-61" target="12TylaKL8Qn4y9vim0oV-50" edge="1">
          <mxGeometry width="50" height="50" relative="1" as="geometry">
            <mxPoint x="705" y="445" as="sourcePoint" />
            <mxPoint x="635" y="370" as="targetPoint" />
          </mxGeometry>
        </mxCell>
        <mxCell id="12TylaKL8Qn4y9vim0oV-64" value="md5code" style="ellipse;whiteSpace=wrap;html=1;" parent="1" vertex="1">
          <mxGeometry x="675" y="420" width="60" height="35" as="geometry" />
        </mxCell>
        <mxCell id="12TylaKL8Qn4y9vim0oV-65" value="" style="endArrow=none;html=1;rounded=0;entryX=0.5;entryY=1;entryDx=0;entryDy=0;" parent="1" source="12TylaKL8Qn4y9vim0oV-64" target="12TylaKL8Qn4y9vim0oV-50" edge="1">
          <mxGeometry width="50" height="50" relative="1" as="geometry">
            <mxPoint x="710" y="405" as="sourcePoint" />
            <mxPoint x="615" y="370" as="targetPoint" />
          </mxGeometry>
        </mxCell>
        <mxCell id="12TylaKL8Qn4y9vim0oV-67" value="" style="rounded=0;whiteSpace=wrap;html=1;" parent="1" vertex="1">
          <mxGeometry x="100" y="550" width="330" height="220" as="geometry" />
        </mxCell>
        <mxCell id="12TylaKL8Qn4y9vim0oV-68" value="upload_info" style="rounded=0;whiteSpace=wrap;html=1;" parent="1" vertex="1">
          <mxGeometry x="234" y="570" width="70" height="30" as="geometry" />
        </mxCell>
        <mxCell id="12TylaKL8Qn4y9vim0oV-69" value="id" style="ellipse;whiteSpace=wrap;html=1;" parent="1" vertex="1">
          <mxGeometry x="132.5" y="620" width="50" height="30" as="geometry" />
        </mxCell>
        <mxCell id="12TylaKL8Qn4y9vim0oV-70" value="user_code" style="ellipse;whiteSpace=wrap;html=1;" parent="1" vertex="1">
          <mxGeometry x="147.5" y="660" width="65" height="30" as="geometry" />
        </mxCell>
        <mxCell id="12TylaKL8Qn4y9vim0oV-71" value="dept_code" style="ellipse;whiteSpace=wrap;html=1;" parent="1" vertex="1">
          <mxGeometry x="175" y="700" width="60" height="30" as="geometry" />
        </mxCell>
        <mxCell id="12TylaKL8Qn4y9vim0oV-72" value="upload_time" style="ellipse;whiteSpace=wrap;html=1;" parent="1" vertex="1">
          <mxGeometry x="305" y="700" width="70" height="30" as="geometry" />
        </mxCell>
        <mxCell id="12TylaKL8Qn4y9vim0oV-73" value="active" style="ellipse;whiteSpace=wrap;html=1;" parent="1" vertex="1">
          <mxGeometry x="355" y="620" width="50" height="30" as="geometry" />
        </mxCell>
        <mxCell id="12TylaKL8Qn4y9vim0oV-74" value="" style="endArrow=none;html=1;rounded=0;exitX=1;exitY=0.5;exitDx=0;exitDy=0;entryX=0.5;entryY=1;entryDx=0;entryDy=0;" parent="1" source="12TylaKL8Qn4y9vim0oV-69" target="12TylaKL8Qn4y9vim0oV-68" edge="1">
          <mxGeometry width="50" height="50" relative="1" as="geometry">
            <mxPoint x="170" y="620" as="sourcePoint" />
            <mxPoint x="220" y="570" as="targetPoint" />
          </mxGeometry>
        </mxCell>
        <mxCell id="12TylaKL8Qn4y9vim0oV-75" value="" style="endArrow=none;html=1;rounded=0;exitX=0.5;exitY=0;exitDx=0;exitDy=0;entryX=0.5;entryY=1;entryDx=0;entryDy=0;" parent="1" source="12TylaKL8Qn4y9vim0oV-70" target="12TylaKL8Qn4y9vim0oV-68" edge="1">
          <mxGeometry width="50" height="50" relative="1" as="geometry">
            <mxPoint x="180" y="637.5" as="sourcePoint" />
            <mxPoint x="250" y="595" as="targetPoint" />
          </mxGeometry>
        </mxCell>
        <mxCell id="12TylaKL8Qn4y9vim0oV-76" value="" style="endArrow=none;html=1;rounded=0;entryX=0.5;entryY=1;entryDx=0;entryDy=0;" parent="1" source="12TylaKL8Qn4y9vim0oV-71" target="12TylaKL8Qn4y9vim0oV-68" edge="1">
          <mxGeometry width="50" height="50" relative="1" as="geometry">
            <mxPoint x="190" y="647.5" as="sourcePoint" />
            <mxPoint x="260" y="605" as="targetPoint" />
          </mxGeometry>
        </mxCell>
        <mxCell id="12TylaKL8Qn4y9vim0oV-77" value="" style="endArrow=none;html=1;rounded=0;exitX=0.5;exitY=0;exitDx=0;exitDy=0;entryX=0.5;entryY=1;entryDx=0;entryDy=0;" parent="1" source="12TylaKL8Qn4y9vim0oV-72" target="12TylaKL8Qn4y9vim0oV-68" edge="1">
          <mxGeometry width="50" height="50" relative="1" as="geometry">
            <mxPoint x="200" y="657.5" as="sourcePoint" />
            <mxPoint x="260" y="600" as="targetPoint" />
          </mxGeometry>
        </mxCell>
        <mxCell id="12TylaKL8Qn4y9vim0oV-78" value="" style="endArrow=none;html=1;rounded=0;exitX=0;exitY=0.5;exitDx=0;exitDy=0;entryX=0.5;entryY=1;entryDx=0;entryDy=0;" parent="1" source="12TylaKL8Qn4y9vim0oV-73" target="12TylaKL8Qn4y9vim0oV-68" edge="1">
          <mxGeometry width="50" height="50" relative="1" as="geometry">
            <mxPoint x="210" y="667.5" as="sourcePoint" />
            <mxPoint x="265" y="600" as="targetPoint" />
          </mxGeometry>
        </mxCell>
        <mxCell id="12TylaKL8Qn4y9vim0oV-79" value="file_code" style="ellipse;whiteSpace=wrap;html=1;" parent="1" vertex="1">
          <mxGeometry x="234" y="715" width="70" height="35" as="geometry" />
        </mxCell>
        <mxCell id="12TylaKL8Qn4y9vim0oV-80" value="" style="endArrow=none;html=1;rounded=0;exitX=0.5;exitY=0;exitDx=0;exitDy=0;entryX=0.5;entryY=1;entryDx=0;entryDy=0;" parent="1" source="12TylaKL8Qn4y9vim0oV-79" target="12TylaKL8Qn4y9vim0oV-68" edge="1">
          <mxGeometry width="50" height="50" relative="1" as="geometry">
            <mxPoint x="345" y="685" as="sourcePoint" />
            <mxPoint x="275" y="610" as="targetPoint" />
          </mxGeometry>
        </mxCell>
        <mxCell id="12TylaKL8Qn4y9vim0oV-81" value="private_level" style="ellipse;whiteSpace=wrap;html=1;" parent="1" vertex="1">
          <mxGeometry x="337.5" y="660" width="75" height="30" as="geometry" />
        </mxCell>
        <mxCell id="12TylaKL8Qn4y9vim0oV-82" value="" style="endArrow=none;html=1;rounded=0;exitX=0;exitY=0;exitDx=0;exitDy=0;entryX=0.5;entryY=1;entryDx=0;entryDy=0;" parent="1" source="12TylaKL8Qn4y9vim0oV-81" target="12TylaKL8Qn4y9vim0oV-68" edge="1">
          <mxGeometry width="50" height="50" relative="1" as="geometry">
            <mxPoint x="365" y="645" as="sourcePoint" />
            <mxPoint x="285" y="610" as="targetPoint" />
          </mxGeometry>
        </mxCell>
        <mxCell id="R7Ycnd9BITaU_u3j1tQD-2" value="img" style="ellipse;whiteSpace=wrap;html=1;" parent="1" vertex="1">
          <mxGeometry x="180" y="160" width="50" height="30" as="geometry" />
        </mxCell>
        <mxCell id="R7Ycnd9BITaU_u3j1tQD-3" value="" style="endArrow=none;html=1;rounded=0;exitX=0.5;exitY=0;exitDx=0;exitDy=0;entryX=0.5;entryY=1;entryDx=0;entryDy=0;" parent="1" source="R7Ycnd9BITaU_u3j1tQD-2" target="12TylaKL8Qn4y9vim0oV-3" edge="1">
          <mxGeometry width="50" height="50" relative="1" as="geometry">
            <mxPoint x="172.6776695296636" y="184.39339828220182" as="sourcePoint" />
            <mxPoint x="265" y="120" as="targetPoint" />
          </mxGeometry>
        </mxCell>
        <mxCell id="R7Ycnd9BITaU_u3j1tQD-5" value="company_code" style="ellipse;whiteSpace=wrap;html=1;" parent="1" vertex="1">
          <mxGeometry x="675" y="192.5" width="95" height="30" as="geometry" />
        </mxCell>
        <mxCell id="R7Ycnd9BITaU_u3j1tQD-6" value="" style="endArrow=none;html=1;rounded=0;exitX=0.5;exitY=0;exitDx=0;exitDy=0;entryX=0.5;entryY=1;entryDx=0;entryDy=0;" parent="1" source="R7Ycnd9BITaU_u3j1tQD-5" target="12TylaKL8Qn4y9vim0oV-34" edge="1">
          <mxGeometry width="50" height="50" relative="1" as="geometry">
            <mxPoint x="730" y="170" as="sourcePoint" />
            <mxPoint x="652.5" y="120" as="targetPoint" />
          </mxGeometry>
        </mxCell>
        <mxCell id="R7Ycnd9BITaU_u3j1tQD-7" value="" style="rounded=0;whiteSpace=wrap;html=1;" parent="1" vertex="1">
          <mxGeometry x="460" y="550" width="330" height="220" as="geometry" />
        </mxCell>
        <mxCell id="R7Ycnd9BITaU_u3j1tQD-8" value="company" style="rounded=0;whiteSpace=wrap;html=1;" parent="1" vertex="1">
          <mxGeometry x="594" y="570" width="70" height="30" as="geometry" />
        </mxCell>
        <mxCell id="R7Ycnd9BITaU_u3j1tQD-9" value="id" style="ellipse;whiteSpace=wrap;html=1;" parent="1" vertex="1">
          <mxGeometry x="492.5" y="620" width="50" height="30" as="geometry" />
        </mxCell>
        <mxCell id="R7Ycnd9BITaU_u3j1tQD-10" value="code" style="ellipse;whiteSpace=wrap;html=1;" parent="1" vertex="1">
          <mxGeometry x="510" y="670" width="52.5" height="30" as="geometry" />
        </mxCell>
        <mxCell id="R7Ycnd9BITaU_u3j1tQD-11" value="name" style="ellipse;whiteSpace=wrap;html=1;" parent="1" vertex="1">
          <mxGeometry x="550" y="700" width="60" height="30" as="geometry" />
        </mxCell>
        <mxCell id="R7Ycnd9BITaU_u3j1tQD-12" value="mail_suffix" style="ellipse;whiteSpace=wrap;html=1;" parent="1" vertex="1">
          <mxGeometry x="680" y="670" width="70" height="30" as="geometry" />
        </mxCell>
        <mxCell id="R7Ycnd9BITaU_u3j1tQD-13" value="active" style="ellipse;whiteSpace=wrap;html=1;" parent="1" vertex="1">
          <mxGeometry x="715" y="620" width="50" height="30" as="geometry" />
        </mxCell>
        <mxCell id="R7Ycnd9BITaU_u3j1tQD-14" value="" style="endArrow=none;html=1;rounded=0;exitX=1;exitY=0.5;exitDx=0;exitDy=0;entryX=0.5;entryY=1;entryDx=0;entryDy=0;" parent="1" source="R7Ycnd9BITaU_u3j1tQD-9" target="R7Ycnd9BITaU_u3j1tQD-8" edge="1">
          <mxGeometry width="50" height="50" relative="1" as="geometry">
            <mxPoint x="530" y="620" as="sourcePoint" />
            <mxPoint x="580" y="570" as="targetPoint" />
          </mxGeometry>
        </mxCell>
        <mxCell id="R7Ycnd9BITaU_u3j1tQD-15" value="" style="endArrow=none;html=1;rounded=0;exitX=0.5;exitY=0;exitDx=0;exitDy=0;entryX=0.5;entryY=1;entryDx=0;entryDy=0;" parent="1" source="R7Ycnd9BITaU_u3j1tQD-10" target="R7Ycnd9BITaU_u3j1tQD-8" edge="1">
          <mxGeometry width="50" height="50" relative="1" as="geometry">
            <mxPoint x="540" y="637.5" as="sourcePoint" />
            <mxPoint x="610" y="595" as="targetPoint" />
          </mxGeometry>
        </mxCell>
        <mxCell id="R7Ycnd9BITaU_u3j1tQD-16" value="" style="endArrow=none;html=1;rounded=0;entryX=0.5;entryY=1;entryDx=0;entryDy=0;" parent="1" source="R7Ycnd9BITaU_u3j1tQD-11" target="R7Ycnd9BITaU_u3j1tQD-8" edge="1">
          <mxGeometry width="50" height="50" relative="1" as="geometry">
            <mxPoint x="550" y="647.5" as="sourcePoint" />
            <mxPoint x="620" y="605" as="targetPoint" />
          </mxGeometry>
        </mxCell>
        <mxCell id="R7Ycnd9BITaU_u3j1tQD-17" value="" style="endArrow=none;html=1;rounded=0;exitX=0.5;exitY=0;exitDx=0;exitDy=0;entryX=0.5;entryY=1;entryDx=0;entryDy=0;" parent="1" source="R7Ycnd9BITaU_u3j1tQD-12" target="R7Ycnd9BITaU_u3j1tQD-8" edge="1">
          <mxGeometry width="50" height="50" relative="1" as="geometry">
            <mxPoint x="560" y="657.5" as="sourcePoint" />
            <mxPoint x="620" y="600" as="targetPoint" />
          </mxGeometry>
        </mxCell>
        <mxCell id="R7Ycnd9BITaU_u3j1tQD-18" value="" style="endArrow=none;html=1;rounded=0;exitX=0;exitY=0.5;exitDx=0;exitDy=0;entryX=0.5;entryY=1;entryDx=0;entryDy=0;" parent="1" source="R7Ycnd9BITaU_u3j1tQD-13" target="R7Ycnd9BITaU_u3j1tQD-8" edge="1">
          <mxGeometry width="50" height="50" relative="1" as="geometry">
            <mxPoint x="570" y="667.5" as="sourcePoint" />
            <mxPoint x="625" y="600" as="targetPoint" />
          </mxGeometry>
        </mxCell>
        <mxCell id="R7Ycnd9BITaU_u3j1tQD-19" value="mail" style="ellipse;whiteSpace=wrap;html=1;" parent="1" vertex="1">
          <mxGeometry x="620" y="700" width="70" height="35" as="geometry" />
        </mxCell>
        <mxCell id="R7Ycnd9BITaU_u3j1tQD-20" value="" style="endArrow=none;html=1;rounded=0;exitX=0.5;exitY=0;exitDx=0;exitDy=0;entryX=0.5;entryY=1;entryDx=0;entryDy=0;" parent="1" source="R7Ycnd9BITaU_u3j1tQD-19" target="R7Ycnd9BITaU_u3j1tQD-8" edge="1">
          <mxGeometry width="50" height="50" relative="1" as="geometry">
            <mxPoint x="705" y="685" as="sourcePoint" />
            <mxPoint x="635" y="610" as="targetPoint" />
          </mxGeometry>
        </mxCell>
        <mxCell id="R7Ycnd9BITaU_u3j1tQD-23" value="company_code" style="ellipse;whiteSpace=wrap;html=1;" parent="1" vertex="1">
          <mxGeometry x="205" y="440" width="100" height="35" as="geometry" />
        </mxCell>
        <mxCell id="R7Ycnd9BITaU_u3j1tQD-28" value="" style="endArrow=none;html=1;rounded=0;exitX=0.5;exitY=0;exitDx=0;exitDy=0;entryX=0.5;entryY=1;entryDx=0;entryDy=0;" parent="1" source="R7Ycnd9BITaU_u3j1tQD-23" target="12TylaKL8Qn4y9vim0oV-20" edge="1">
          <mxGeometry width="50" height="50" relative="1" as="geometry">
            <mxPoint x="345" y="460" as="sourcePoint" />
            <mxPoint x="275" y="370" as="targetPoint" />
          </mxGeometry>
        </mxCell>
      </root>
    </mxGraphModel>
  </diagram>
</mxfile>
